HIERARCHY
ROOT SpineBase
{
  OFFSET 0.000000 0.000000 0.000000
  CHANNELS 6 Xposition Yposition Zposition Zrotation Xrotation Yrotation
  JOINT SpineMid
  {
    OFFSET 0.000000 35.159178 0.000000
    CHANNELS 3 Zrotation Xrotation Yrotation
    JOINT SpineShoulder
    {
      OFFSET -0.323707 26.138959 -0.787069
      CHANNELS 3 Zrotation Xrotation Yrotation
      JOINT Neck
      {
        OFFSET -0.243555 8.641784 -0.597914
        CHANNELS 3 Zrotation Xrotation Yrotation
        JOINT Head
        {
          OFFSET -3.646071 9.630169 4.118781
          CHANNELS 3 Zrotation Xrotation Yrotation
          End Site
          {
            OFFSET 0 0 0
          }
        }
      }
      JOINT ShoulderLeft
      {
        OFFSET -10.148635 -5.716841 -9.071932
        CHANNELS 3 Zrotation Xrotation Yrotation
        JOINT ElbowLeft
        {
          OFFSET -3.729490 -14.562075 24.111433
          CHANNELS 3 Zrotation Xrotation Yrotation
          JOINT WristLeft
          {
            OFFSET 2.703166 -27.990217 8.987286
            CHANNELS 3 Zrotation Xrotation Yrotation
            JOINT HandLeft
            {
              OFFSET -2.587970 -6.512601 0.493182
              CHANNELS 3 Zrotation Xrotation Yrotation
              JOINT HandTipLeft
              {
                OFFSET -1.295017 -1.469757 -0.254380
                CHANNELS 3 Zrotation Xrotation Yrotation
                End Site
                {
                  OFFSET 0 0 0
                }
              }
              JOINT ThumbLeft
              {
                OFFSET 0.015190 1.207192 -3.037168
                CHANNELS 3 Zrotation Xrotation Yrotation
                End Site
                {
                  OFFSET 0 0 0
                }
              }
            }
          }
        }
      }
      JOINT ShoulderRight
      {
        OFFSET -0.340243 -4.523511 -12.321753
        CHANNELS 3 Zrotation Xrotation Yrotation
        JOINT ElbowRight
        {
          OFFSET -6.184821 -27.834043 -3.724221
          CHANNELS 3 Zrotation Xrotation Yrotation
          JOINT WristRight
          {
            OFFSET -7.087414 -22.059059 3.857674
            CHANNELS 3 Zrotation Xrotation Yrotation
            JOINT HandRight
            {
              OFFSET 0.161431 -8.573251 2.279515
              CHANNELS 3 Zrotation Xrotation Yrotation
              JOINT HandTipRight
              {
                OFFSET -3.152056 -8.371960 0.334260
                CHANNELS 3 Zrotation Xrotation Yrotation
                End Site
                {
                  OFFSET 0 0 0
                }
              }
              JOINT ThumbRight
              {
                OFFSET 5.266895 -0.987153 -1.552433
                CHANNELS 3 Zrotation Xrotation Yrotation
                End Site
                {
                  OFFSET 0 0 0
                }
              }
            }
          }
        }
      }
    }
  }
  JOINT HipLeft
  {
    OFFSET -7.119276 -0.126530 -0.443800
    CHANNELS 3 Zrotation Xrotation Yrotation
    JOINT KneeLeft
    {
      OFFSET 23.868330 -27.893656 12.972267
      CHANNELS 3 Zrotation Xrotation Yrotation
      JOINT AnkleLeft
      {
        OFFSET 7.550591 -35.440764 5.464100
        CHANNELS 3 Zrotation Xrotation Yrotation
        JOINT FootLeft
        {
          OFFSET -8.953685 -1.904587 -13.837906
          CHANNELS 3 Zrotation Xrotation Yrotation
          End Site
          {
            OFFSET 0 0 0
          }
        }
      }
    }
  }
  JOINT HipRight
  {
    OFFSET 5.548424 2.366182 -6.545173
    CHANNELS 3 Zrotation Xrotation Yrotation
    JOINT KneeRight
    {
      OFFSET -2.493012 -34.166006 2.180073
      CHANNELS 3 Zrotation Xrotation Yrotation
      JOINT AnkleRight
      {
        OFFSET 6.074587 -34.494596 -1.875258
        CHANNELS 3 Zrotation Xrotation Yrotation
        JOINT FootRight
        {
          OFFSET -6.092419 -6.668570 -0.918721
          CHANNELS 3 Zrotation Xrotation Yrotation
          End Site
          {
            OFFSET 0 0 0
          }
        }
      }
    }
  }
}
MOTION
Frames: 5
Frame Time: 0.033333
63.419209 73.208415 301.428607 -0.000000 0.000000 25.717702 -0.000000 0.000000 -25.717702 -0.000000 0.000000 0.000000 -0.000000 0.000000 0.000000 0.000000 0.000000 0.000000 -0.000000 0.000000 0.000000 -0.000000 0.000000 0.000000 -0.000000 0.000000 0.000000 -0.000000 0.000000 0.000000 0.000000 0.000000 0.000000 0.000000 0.000000 0.000000 -0.000000 0.000000 0.000000 -0.000000 0.000000 0.000000 -0.000000 0.000000 0.000000 -0.000000 0.000000 0.000000 0.000000 0.000000 0.000000 0.000000 0.000000 0.000000 -0.000000 0.000000 -25.717702 -0.000000 0.000000 0.000000 -0.000000 0.000000 0.000000 0.000000 0.000000 0.000000 -0.000000 0.000000 -25.717702 -0.000000 0.000000 0.000000 -0.000000 0.000000 0.000000 0.000000 0.000000 0.000000
63.713719 73.202283 301.199148 0.474755 0.265570 26.691318 -0.543454 -0.024012 -26.692532 -0.000000 0.000000 0.000000 -0.000000 0.000000 0.000000 0.000000 0.000000 0.000000 -0.000000 0.000000 0.000000 -0.000000 0.000000 0.000000 -0.000000 0.000000 0.000000 -0.000000 0.000000 0.000000 0.000000 0.000000 0.000000 0.000000 0.000000 0.000000 -0.000000 0.000000 0.000000 -0.000000 0.000000 0.000000 0.206668 2.446767 0.097164 0.478049 -1.251892 -0.507736 0.000000 0.000000 0.000000 0.000000 0.000000 0.000000 -0.543454 -0.024012 -26.692532 -0.000000 0.000000 0.000000 -0.000000 0.000000 0.000000 0.000000 0.000000 0.000000 -0.543454 -0.024012 -26.692532 -0.000000 0.000000 0.000000 -0.000000 0.000000 0.000000 0.000000 0.000000 0.000000
63.993224 73.206866 301.019739 0.927649 0.467274 27.476920 -1.038593 0.013485 -27.480580 -0.000000 0.000000 0.000000 -0.000000 0.000000 0.000000 0.000000 0.000000 0.000000 -0.000000 0.000000 0.000000 -0.000000 0.000000 0.000000 -0.000000 0.000000 0.000000 -0.000000 0.000000 0.000000 0.000000 0.000000 0.000000 0.000000 0.000000 0.000000 -0.000000 0.000000 0.000000 0.610683 0.638148 -0.101912 -0.260689 3.855871 0.266549 0.728077 -2.306487 -0.915057 0.000000 0.000000 0.000000 0.000000 0.000000 0.000000 -1.651131 0.510175 -27.703335 0.773228 -0.154961 0.226599 -0.288333 0.231543 0.980950 0.000000 0.000000 0.000000 -2.418475 -0.353565 -27.481759 1.054930 0.962291 -0.011776 -0.000000 0.000000 0.000000 0.000000 0.000000 0.000000
64.257723 73.222165 300.890380 1.358966 0.605214 28.085907 -1.483840 0.105949 -28.091713 -0.000000 0.000000 0.000000 -0.000000 0.000000 0.000000 0.000000 0.000000 0.000000 -0.000000 0.000000 0.000000 -0.000000 0.000000 0.000000 -0.000000 0.000000 0.000000 -0.000000 0.000000 0.000000 0.000000 0.000000 0.000000 0.000000 0.000000 0.000000 -0.000000 0.000000 0.000000 0.914780 0.978168 -0.162776 -0.477613 5.155425 0.369913 0.699318 -3.210860 -1.229118 0.000000 0.000000 0.000000 0.000000 0.000000 0.000000 -2.394657 0.878638 -28.413623 1.168759 -0.246111 0.332246 -0.381998 0.276523 1.428873 0.000000 0.000000 0.000000 -3.392861 -0.292278 -28.099078 1.496739 1.250220 -0.012071 1.047731 -0.377897 0.206171 0.000000 0.000000 0.000000
64.507217 73.248179 300.811071 1.768977 0.679427 28.526963 -1.878631 0.248040 -28.533386 -0.000000 0.000000 0.000000 -0.000000 0.000000 0.000000 0.000000 0.000000 0.000000 -0.000000 0.000000 0.000000 -0.000000 0.000000 0.000000 -0.000000 0.000000 0.000000 -0.000000 0.000000 0.000000 0.000000 0.000000 0.000000 0.000000 0.000000 0.000000 -0.000000 0.000000 0.000000 1.219338 1.333619 -0.230706 -0.751038 6.028016 0.456785 0.361189 -4.004537 -1.455662 0.000000 0.000000 0.000000 0.000000 0.000000 0.000000 -3.084504 1.311230 -28.944858 1.569759 -0.346522 0.432629 -0.441161 0.274874 1.848309 0.000000 0.000000 0.000000 -4.207802 -0.092959 -28.547346 1.883404 1.412373 -0.006104 1.272554 -0.527365 0.315739 0.000000 0.000000 0.000000
